# xmcd CD database file
#
# Track frame offsets:
#	150
#	16790
#	30605
#	46172
#	63092
#	77067
#	90605
#	105502
#	120972
#	133732
#	150220
#
# Disc length: 2166 seconds
#
# Revision: 0
# Processed by: cddbd v1.5.1PL2 Copyright (c) Steve Scherf et al.
# Submitted via: CDex 1.51
#
DISCID=6f08740b
DTITLE=T.Cane Honey  - T.Cane Honey 
DYEAR=1995
DGENRE=Country
TTITLE0=Even Cowboys Get The Blues
TTITLE1=Melinda
TTITLE2=Love Of The Serious Kind
TTITLE3=Life In The Slow Lane
TTITLE4=The Wrong Man
TTITLE5=Southern Kickin' Finger Lickin' Twangin' Rockin' Boogie
TTITLE6=I Just Can't Seem To Remember How To Forget
TTITLE7=Bad Blood
TTITLE8=Cool Cool Love
TTITLE9=W.O.M.A.N.
TTITLE10=Sittin' On Ready Rockin' On Go
EXTD=YEAR: 1995
EXTT0=
EXTT1=
EXTT2=
EXTT3=
EXTT4=
EXTT5=
EXTT6=
EXTT7=
EXTT8=
EXTT9=
EXTT10=
PLAYORDER=
